<?xml version="1.0" encoding="utf-8"?>

<!-- 	SVG: 	IE Not Supported
	Artist: Jim Cox (JCCC)
	Date: 	November 27, 2019
	Copyright (C) ISU/JCCC, ITSD/DOC, MoDOC  
-->

<!DOCTYPE svg PUBLIC "-//W3C//DTD SVG 1.1//EN" "http://www.w3.org/Graphics/SVG/1.1/DTD/svg11.dtd">
<svg version="1.1" id="no_i" xmlns="http://www.w3.org/2000/svg" xmlns:xlink="http://www.w3.org/1999/xlink" x="0px" y="0px" width="250px" height="250px" viewBox="0 0 250 250" enable-background="new 0 0 250 250" xml:space="preserve">
	<polyline fill="none" stroke="#6D6E71" stroke-width="13.2068" stroke-linecap="round" stroke-linejoin="round" stroke-miterlimit="10" points=" 120.257,198.505 22.388,198.141 107.886,28.6 155.911,123.193 "/>
	<path fill="#6D6E71" d="M125.021,178.494H92.842v-23.473h32.179V178.494z M119.863,142.447h-21.99l-4.514-27.923v-25.73h31.146 v25.214L119.863,142.447z"/>
	<path fill-rule="evenodd" clip-rule="evenodd" fill="#28BBEC" d="M235.745,186.838c-7.191,22.426-32.542,39.771-60.576,33.365 c-28.079-6.411-45.524-33.482-39.665-61.744c5.618-27.109,30.55-45.163,58.18-41.186c29.148,4.195,48.754,29.935,44.929,57.887 c-24.11,0-48.299,0-72.497,0c0.26,11.143,8.92,21.931,19.208,23.692c7.791,1.334,14.005-2.21,18.479-8.307 c2.141-2.919,4.312-3.886,7.778-3.785C219.513,187.002,227.458,186.838,235.745,186.838z M166.136,161.715 c14.639,0,29.275,0,43.998,0c-3.055-14.205-12.641-23.39-23.21-22.587C176.584,139.919,167.135,150.223,166.136,161.715z"/>
	<path fill="#FFF200" d="M157.199,213.125c0,0-0.79,0.42-2.345,1.059c-1.561,0.612-3.863,1.549-6.96,2.28 c-3.088,0.71-6.972,1.5-11.702,0.895c-2.345-0.309-4.955-1.058-7.391-2.733c-2.445-1.651-4.434-4.35-5.529-7.333 c-1.086-2.997-1.368-6.167-1.383-9.339c0.069-1.562,0.107-3.185,0.363-4.741c0.107-0.79,0.215-1.586,0.324-2.388 c0.157-0.78,0.315-1.566,0.474-2.358c0.282-1.605,0.721-3.157,1.156-4.739c0.401-1.601,0.931-3.15,1.446-4.733 c0.262-0.788,0.507-1.593,0.79-2.38c0.297-0.779,0.596-1.563,0.896-2.35c0.303-0.787,0.606-1.578,0.911-2.372l0.114-0.298 l0.058-0.149l0.097-0.223c0.096-0.208,0.134-0.326,0.299-0.645l0.431-0.827l0.341-0.612c1.777-3.145,3.667-5.983,5.666-8.887 c1.987-2.888,4.071-5.747,6.266-8.561c4.354-5.652,9.107-11.143,14.168-16.39c5.102-5.202,10.51-10.173,16.355-14.533 c2.923-2.18,5.904-4.259,9.055-6.063c3.139-1.812,6.333-3.499,9.691-4.797c0.821-0.352,1.691-0.619,2.528-0.928 c0.776-0.271,1.549-0.54,2.318-0.809c1.587-0.553,3.198-1.065,4.8-1.526c3.21-0.915,6.396-1.708,9.585-2.23 c3.188-0.512,6.363-0.835,9.521-0.761c3.146,0.089,6.311,0.511,9.27,1.701c2.943,1.161,5.635,3.254,7.159,5.839 c1.551,2.575,2.04,5.257,2.21,7.63c0.039,2.379-0.156,4.525-0.554,6.441c-0.216,0.947-0.423,1.855-0.621,2.723 c-0.258,0.841-0.505,1.644-0.738,2.405c-0.422,1.53-1.025,2.813-1.455,3.956c-0.427,1.143-0.906,2.068-1.248,2.833 c-0.721,1.512-1.104,2.317-1.104,2.317s0.184-0.873,0.528-2.51c0.391-1.613,0.808-4.031,1.228-7.054 c0.085-0.756,0.175-1.553,0.27-2.388c0.031-0.83,0.063-1.699,0.098-2.604c0.031-0.451,0.015-0.906-0.021-1.367 c-0.021-0.459-0.041-0.927-0.063-1.403c0.001-0.479-0.077-0.948-0.155-1.422c-0.071-0.473-0.144-0.953-0.218-1.441 c-0.462-1.878-1.135-3.767-2.356-5.202c-1.2-1.439-2.867-2.438-4.955-2.965c-2.078-0.537-4.516-0.646-7.087-0.412 c-2.575,0.227-5.293,0.733-8.065,1.467c-2.773,0.737-5.619,1.647-8.485,2.729c-1.434,0.549-2.869,1.119-4.335,1.723 c-0.754,0.316-1.513,0.635-2.274,0.954c-0.689,0.308-1.395,0.563-2.08,0.913c-2.767,1.293-5.507,2.875-8.214,4.604 c-0.672,0.445-1.346,0.892-2.021,1.34c-0.662,0.475-1.327,0.952-1.992,1.43c-1.332,0.958-2.656,1.953-3.959,2.994 c-5.208,4.167-10.26,8.823-15.042,13.78c-4.825,4.919-9.391,10.139-13.734,15.4c-2.151,2.647-4.259,5.3-6.278,7.956 c-1.999,2.646-3.963,5.365-5.635,7.902l-0.295,0.458l-0.172,0.259c-0.046,0.039-0.168,0.303-0.256,0.465l-0.035,0.068 c-0.021,0.04,0.044-0.104,0.002-0.011l-0.062,0.137l-0.124,0.271c-0.33,0.726-0.659,1.448-0.987,2.166 c-0.663,1.438-1.317,2.859-1.882,4.283c-0.589,1.42-1.199,2.823-1.666,4.228c-0.502,1.401-1.021,2.786-1.403,4.156 c-0.209,0.687-0.417,1.368-0.623,2.045c-0.157,0.677-0.314,1.348-0.47,2.015c-0.363,1.343-0.49,2.637-0.715,3.926 c-0.284,2.54-0.294,4.972,0.165,7.087c0.48,2.102,1.452,3.826,2.851,5.146c1.393,1.333,3.229,2.194,5.093,2.763 c3.771,1.108,7.533,1.157,10.555,1.011c3.042-0.18,5.463-0.505,7.099-0.792C156.326,213.323,157.199,213.125,157.199,213.125z"/>
</svg>
