<?xml version="1.0" encoding="utf-8"?>

<!-- 	
	SVG: 	Shamen Web Job Durration
	Artist: Jim Cox (JCCC)
	Date: 	December 15, 2017  
	Copyright (C) ISU/JCCC, ITSD/DOC, MoDOC  
-->

<!DOCTYPE svg PUBLIC "-//W3C//DTD SVG 1.1//EN" "http://www.w3.org/Graphics/SVG/1.1/DTD/svg11.dtd">
<svg version="1.1" id="Job_Durration" xmlns="http://www.w3.org/2000/svg" xmlns:xlink="http://www.w3.org/1999/xlink" x="0px" y="0px" width="250px" viewBox="0 0 988 340" enable-background="new 0 0 988 340" xml:space="preserve">
 
<g id="Lines">
	
		<line fill="none" stroke="#008080" stroke-width="1.25" stroke-miterlimit="10" x1="48.884" y1="275.959" x2="48.884" y2="287.889"/>
	
		<line fill="none" stroke="#008080" stroke-width="1.25" stroke-miterlimit="10" x1="51.926" y1="276.854" x2="51.926" y2="287.262"/>
	
		<line fill="none" stroke="#008080" stroke-width="1.25" stroke-miterlimit="10" x1="55.685" y1="276.523" x2="55.685" y2="287.262"/>
	
		<line fill="none" stroke="#008080" stroke-width="1.25" stroke-miterlimit="10" x1="59.532" y1="277.021" x2="59.532" y2="287.529"/>
	
		<line fill="none" stroke="#008080" stroke-width="1.25" stroke-miterlimit="10" x1="65.527" y1="277.122" x2="65.527" y2="287.709"/>
	
		<line fill="none" stroke="#008080" stroke-width="1.25" stroke-miterlimit="10" x1="67.854" y1="277.302" x2="67.854" y2="288.889"/>
	
		<line fill="none" stroke="#008080" stroke-width="1.25" stroke-miterlimit="10" x1="75.101" y1="276.659" x2="75.101" y2="288.246"/>
	
		<line fill="none" stroke="#008080" stroke-width="1.25" stroke-miterlimit="10" x1="79.754" y1="276.659" x2="79.754" y2="288.246"/>
	
		<line fill="none" stroke="#008080" stroke-width="1.25" stroke-miterlimit="10" x1="81.129" y1="276.57" x2="81.129" y2="288.157"/>
	
		<line fill="none" stroke="#008080" stroke-width="1.25" stroke-miterlimit="10" x1="82.528" y1="276.57" x2="82.528" y2="288.157"/>
	
		<line fill="none" stroke="#008080" stroke-width="1.25" stroke-miterlimit="10" x1="84.228" y1="276.57" x2="84.228" y2="288.157"/>
	
		<line fill="none" stroke="#008080" stroke-width="1.25" stroke-miterlimit="10" x1="85.212" y1="276.659" x2="85.212" y2="288.246"/>
	
		<line fill="none" stroke="#008080" stroke-width="1.25" stroke-miterlimit="10" x1="86.733" y1="276.749" x2="86.733" y2="288.336"/>
	<line fill="none" stroke="#008080" stroke-width="1.25" stroke-miterlimit="10" x1="88.254" y1="276.8" x2="88.254" y2="286.387"/>
	
		<line fill="none" stroke="#008080" stroke-width="1.25" stroke-miterlimit="10" x1="89.149" y1="276.928" x2="89.149" y2="288.516"/>
	
		<line fill="none" stroke="#008080" stroke-width="1.25" stroke-miterlimit="10" x1="93.265" y1="275.959" x2="93.265" y2="285.546"/>
	
		<line fill="none" stroke="#008080" stroke-width="1.25" stroke-miterlimit="10" x1="91.207" y1="277.063" x2="91.207" y2="286.648"/>
	
		<line fill="none" stroke="#008080" stroke-width="1.25" stroke-miterlimit="10" x1="93.265" y1="268.355" x2="93.265" y2="277.943"/>
	
		<line fill="none" stroke="#008080" stroke-width="1.25" stroke-miterlimit="10" x1="91.833" y1="268.982" x2="91.833" y2="278.57"/>
	
		<line fill="none" stroke="#008080" stroke-width="1.25" stroke-miterlimit="10" x1="90.133" y1="268.355" x2="90.133" y2="277.943"/>
	
		<line fill="none" stroke="#008080" stroke-width="1.25" stroke-miterlimit="10" x1="88.254" y1="268.355" x2="88.254" y2="277.943"/>
	
		<line fill="none" stroke="#008080" stroke-width="1.25" stroke-miterlimit="10" x1="86.733" y1="267.475" x2="86.733" y2="277.063"/>
	
		<line fill="none" stroke="#008080" stroke-width="1.25" stroke-miterlimit="10" x1="107.286" y1="266.771" x2="107.286" y2="276.359"/>
	
		<line fill="none" stroke="#008080" stroke-width="1.25" stroke-miterlimit="10" x1="106.392" y1="268.359" x2="106.392" y2="277.945"/>
	
		<line fill="none" stroke="#008080" stroke-width="1.25" stroke-miterlimit="10" x1="104.96" y1="268.986" x2="104.96" y2="278.573"/>
	
		<line fill="none" stroke="#008080" stroke-width="1.25" stroke-miterlimit="10" x1="103.26" y1="268.359" x2="103.26" y2="277.945"/>
	
		<line fill="none" stroke="#008080" stroke-width="1.25" stroke-miterlimit="10" x1="101.381" y1="268.359" x2="101.381" y2="277.945"/>
	<line fill="none" stroke="#008080" stroke-width="1.25" stroke-miterlimit="10" x1="99.86" y1="267.479" x2="99.86" y2="277.064"/>
	
		<line fill="none" stroke="#008080" stroke-width="1.25" stroke-miterlimit="10" x1="104.126" y1="276.714" x2="104.126" y2="285.302"/>
	
		<line fill="none" stroke="#008080" stroke-width="1.25" stroke-miterlimit="10" x1="103.232" y1="277.302" x2="103.232" y2="286.889"/>
	<line fill="none" stroke="#008080" stroke-width="1.25" stroke-miterlimit="10" x1="101.8" y1="276.93" x2="101.8" y2="287.516"/>
	<line fill="none" stroke="#008080" stroke-width="1.25" stroke-miterlimit="10" x1="100.1" y1="277.302" x2="100.1" y2="286.889"/>
	
		<line fill="none" stroke="#008080" stroke-width="1.25" stroke-miterlimit="10" x1="98.221" y1="277.302" x2="98.221" y2="286.889"/>
	<line fill="none" stroke="#008080" stroke-width="1.25" stroke-miterlimit="10" x1="96.7" y1="276.419" x2="96.7" y2="286.007"/>
	
		<line fill="none" stroke="#008080" stroke-width="1.25" stroke-miterlimit="10" x1="110.344" y1="278.996" x2="110.32" y2="269.41"/>
	
		<line fill="none" stroke="#008080" stroke-width="1.25" stroke-miterlimit="10" x1="111.234" y1="277.408" x2="111.211" y2="267.82"/>
	
		<line fill="none" stroke="#008080" stroke-width="1.25" stroke-miterlimit="10" x1="112.665" y1="276.775" x2="112.641" y2="267.189"/>
	
		<line fill="none" stroke="#008080" stroke-width="1.25" stroke-miterlimit="10" x1="114.366" y1="277.398" x2="114.342" y2="267.813"/>
	
		<line fill="none" stroke="#008080" stroke-width="1.25" stroke-miterlimit="10" x1="116.245" y1="277.396" x2="116.221" y2="267.809"/>
	
		<line fill="none" stroke="#008080" stroke-width="1.25" stroke-miterlimit="10" x1="117.769" y1="278.271" x2="117.745" y2="268.688"/>
	<line fill="none" stroke="#008080" stroke-miterlimit="10" x1="53.556" y1="71.286" x2="54.46" y2="276.704"/>
	<line fill="none" stroke="#008080" stroke-miterlimit="10" x1="47.951" y1="164.045" x2="47.951" y2="276.704"/>
	<line fill="none" stroke="#008080" stroke-miterlimit="10" x1="80.677" y1="61.16" x2="81.581" y2="276.704"/>
	<polyline fill="none" stroke="#008080" stroke-width="1.25" stroke-miterlimit="10" points="975.809,276.704 890.159,276.704 
		890.159,40.366 235.088,287.895 233.822,267.281 124.252,276.896 	"/>
	
		<line fill="none" stroke="#008080" stroke-width="1.25" stroke-miterlimit="10" x1="43.694" y1="267.117" x2="43.694" y2="276.704"/>
	
		<line fill="none" stroke="#008080" stroke-width="1.25" stroke-miterlimit="10" x1="45.126" y1="267.027" x2="45.126" y2="276.614"/>
	
		<line fill="none" stroke="#008080" stroke-width="1.25" stroke-miterlimit="10" x1="46.558" y1="266.85" x2="46.558" y2="276.436"/>
	
		<line fill="none" stroke="#008080" stroke-width="1.25" stroke-miterlimit="10" x1="49.421" y1="267.027" x2="49.421" y2="276.614"/>
	<line fill="none" stroke="#008080" stroke-width="1.25" stroke-miterlimit="10" x1="53.09" y1="267.027" x2="53.09" y2="276.614"/>
	
		<line fill="none" stroke="#008080" stroke-width="1.25" stroke-miterlimit="10" x1="55.685" y1="266.938" x2="55.685" y2="276.523"/>
	
		<line fill="none" stroke="#008080" stroke-width="1.25" stroke-miterlimit="10" x1="67.854" y1="267.436" x2="67.854" y2="277.021"/>
	
		<line fill="none" stroke="#008080" stroke-width="1.25" stroke-miterlimit="10" x1="76.264" y1="266.372" x2="76.264" y2="276.959"/>
	
		<line fill="none" stroke="#008080" stroke-width="1.25" stroke-miterlimit="10" x1="70.806" y1="266.77" x2="70.806" y2="276.355"/>
	
		<line fill="none" stroke="#008080" stroke-width="1.25" stroke-miterlimit="10" x1="74.027" y1="267.346" x2="74.027" y2="276.934"/>
	
		<line fill="none" stroke="#008080" stroke-width="1.25" stroke-miterlimit="10" x1="57.206" y1="266.938" x2="57.206" y2="276.523"/>
	
		<line fill="none" stroke="#008080" stroke-width="1.25" stroke-miterlimit="10" x1="58.816" y1="267.475" x2="58.816" y2="277.063"/>
	
		<line fill="none" stroke="#008080" stroke-width="1.25" stroke-miterlimit="10" x1="59.979" y1="266.361" x2="59.979" y2="276.948"/>
	
		<line fill="none" stroke="#008080" stroke-width="1.25" stroke-miterlimit="10" x1="61.769" y1="266.143" x2="61.769" y2="276.729"/>
	
		<line fill="none" stroke="#008080" stroke-width="1.25" stroke-miterlimit="10" x1="63.648" y1="266.282" x2="63.648" y2="276.869"/>
	
		<line fill="none" stroke="#008080" stroke-width="1.25" stroke-miterlimit="10" x1="79.754" y1="265.745" x2="79.754" y2="276.332"/>
	
		<line fill="none" stroke="#008080" stroke-width="1.25" stroke-miterlimit="10" x1="64.811" y1="267.268" x2="64.811" y2="276.854"/>
	
		<line fill="none" stroke="#008080" stroke-width="1.25" stroke-miterlimit="10" x1="65.975" y1="267.268" x2="65.975" y2="276.854"/>
	
		<line fill="none" stroke="#008080" stroke-width="1.25" stroke-miterlimit="10" x1="78.054" y1="266.104" x2="78.054" y2="276.689"/>
	<polyline fill="none" stroke="#008080" stroke-width="1.25" stroke-miterlimit="10" points="94.633,276.332 94.633,274.76 
		94.633,265.173 	"/>
	<path fill="none" stroke="#008080" stroke-width="1.25" stroke-miterlimit="10" d="M43.402,276.332"/>
	<polyline opacity="0.2" fill="#008080" enable-background="new    " points="124.252,276.896 233.822,267.281 235.088,287.895 
		890.159,40.366 890.159,276.704 975.809,276.704 975.809,312.203 42.238,312.01 42.237,310.783 42.929,277.93 94.16,277.93 
		94.16,276.355 94.16,266.77 	"/>
	<g>
		
			<line fill="none" stroke="#008080" stroke-width="1.25" stroke-miterlimit="10" x1="891.715" y1="276.77" x2="891.715" y2="288.355"/>
		
			<line fill="none" stroke="#008080" stroke-width="1.25" stroke-miterlimit="10" x1="892.698" y1="276.857" x2="892.698" y2="288.443"/>
		
			<line fill="none" stroke="#008080" stroke-width="1.25" stroke-miterlimit="10" x1="894.22" y1="276.947" x2="894.22" y2="288.534"/>
		
			<line fill="none" stroke="#008080" stroke-width="1.25" stroke-miterlimit="10" x1="895.74" y1="276.998" x2="895.74" y2="286.585"/>
		
			<line fill="none" stroke="#008080" stroke-width="1.25" stroke-miterlimit="10" x1="896.635" y1="277.126" x2="896.635" y2="288.713"/>
		
			<line fill="none" stroke="#008080" stroke-width="1.25" stroke-miterlimit="10" x1="900.752" y1="276.157" x2="900.752" y2="285.744"/>
		
			<line fill="none" stroke="#008080" stroke-width="1.25" stroke-miterlimit="10" x1="898.693" y1="277.26" x2="898.693" y2="286.848"/>
		
			<line fill="none" stroke="#008080" stroke-width="1.25" stroke-miterlimit="10" x1="900.752" y1="268.555" x2="900.752" y2="278.143"/>
		
			<line fill="none" stroke="#008080" stroke-width="1.25" stroke-miterlimit="10" x1="899.32" y1="269.182" x2="899.32" y2="278.77"/>
		
			<line fill="none" stroke="#008080" stroke-width="1.25" stroke-miterlimit="10" x1="897.619" y1="268.555" x2="897.619" y2="278.143"/>
		
			<line fill="none" stroke="#008080" stroke-width="1.25" stroke-miterlimit="10" x1="895.74" y1="268.555" x2="895.74" y2="278.143"/>
		
			<line fill="none" stroke="#008080" stroke-width="1.25" stroke-miterlimit="10" x1="894.22" y1="267.673" x2="894.22" y2="277.26"/>
		
			<line fill="none" stroke="#008080" stroke-width="1.25" stroke-miterlimit="10" x1="914.771" y1="266.971" x2="914.771" y2="276.559"/>
		
			<line fill="none" stroke="#008080" stroke-width="1.25" stroke-miterlimit="10" x1="913.878" y1="268.559" x2="913.878" y2="278.145"/>
		
			<line fill="none" stroke="#008080" stroke-width="1.25" stroke-miterlimit="10" x1="912.446" y1="269.186" x2="912.446" y2="278.771"/>
		
			<line fill="none" stroke="#008080" stroke-width="1.25" stroke-miterlimit="10" x1="910.746" y1="268.559" x2="910.746" y2="278.145"/>
		
			<line fill="none" stroke="#008080" stroke-width="1.25" stroke-miterlimit="10" x1="908.867" y1="268.559" x2="908.867" y2="278.145"/>
		
			<line fill="none" stroke="#008080" stroke-width="1.25" stroke-miterlimit="10" x1="907.346" y1="267.676" x2="907.346" y2="277.264"/>
		
			<line fill="none" stroke="#008080" stroke-width="1.25" stroke-miterlimit="10" x1="911.613" y1="276.912" x2="911.613" y2="285.5"/>
		
			<line fill="none" stroke="#008080" stroke-width="1.25" stroke-miterlimit="10" x1="910.719" y1="277.5" x2="910.719" y2="287.086"/>
		
			<line fill="none" stroke="#008080" stroke-width="1.25" stroke-miterlimit="10" x1="909.287" y1="277.127" x2="909.287" y2="287.713"/>
		
			<line fill="none" stroke="#008080" stroke-width="1.25" stroke-miterlimit="10" x1="907.586" y1="276.5" x2="907.586" y2="287.086"/>
		
			<line fill="none" stroke="#008080" stroke-width="1.25" stroke-miterlimit="10" x1="905.707" y1="276.5" x2="905.707" y2="287.086"/>
		
			<line fill="none" stroke="#008080" stroke-width="1.25" stroke-miterlimit="10" x1="904.188" y1="276.617" x2="904.188" y2="286.205"/>
		
			<line fill="none" stroke="#008080" stroke-width="1.25" stroke-miterlimit="10" x1="917.83" y1="279.193" x2="917.807" y2="269.607"/>
		
			<line fill="none" stroke="#008080" stroke-width="1.25" stroke-miterlimit="10" x1="918.721" y1="277.605" x2="918.697" y2="268.02"/>
		
			<line fill="none" stroke="#008080" stroke-width="1.25" stroke-miterlimit="10" x1="920.15" y1="276.975" x2="920.127" y2="267.389"/>
		
			<line fill="none" stroke="#008080" stroke-width="1.25" stroke-miterlimit="10" x1="921.854" y1="277.598" x2="921.828" y2="268.011"/>
		
			<line fill="none" stroke="#008080" stroke-width="1.25" stroke-miterlimit="10" x1="923.731" y1="277.594" x2="923.707" y2="268.006"/>
		
			<line fill="none" stroke="#008080" stroke-width="1.25" stroke-miterlimit="10" x1="925.255" y1="278.471" x2="925.23" y2="268.885"/>
		<polyline fill="none" stroke="#008080" stroke-width="1.25" stroke-miterlimit="10" points="902.119,276.529 902.119,274.958 
			902.119,265.371 		"/>
	</g>
	<g>
		
			<line fill="none" stroke="#008080" stroke-width="1.25" stroke-miterlimit="10" x1="942.472" y1="276.104" x2="942.472" y2="287.691"/>
		
			<line fill="none" stroke="#008080" stroke-width="1.25" stroke-miterlimit="10" x1="943.455" y1="276.193" x2="943.455" y2="287.779"/>
		
			<line fill="none" stroke="#008080" stroke-width="1.25" stroke-miterlimit="10" x1="944.977" y1="276.283" x2="944.977" y2="287.87"/>
		
			<line fill="none" stroke="#008080" stroke-width="1.25" stroke-miterlimit="10" x1="946.497" y1="276.334" x2="946.497" y2="285.921"/>
		
			<line fill="none" stroke="#008080" stroke-width="1.25" stroke-miterlimit="10" x1="947.393" y1="276.462" x2="947.393" y2="288.049"/>
		
			<line fill="none" stroke="#008080" stroke-width="1.25" stroke-miterlimit="10" x1="951.509" y1="275.493" x2="951.509" y2="285.08"/>
		
			<line fill="none" stroke="#008080" stroke-width="1.25" stroke-miterlimit="10" x1="949.45" y1="276.596" x2="949.45" y2="286.184"/>
		
			<line fill="none" stroke="#008080" stroke-width="1.25" stroke-miterlimit="10" x1="951.509" y1="267.891" x2="951.509" y2="277.479"/>
		
			<line fill="none" stroke="#008080" stroke-width="1.25" stroke-miterlimit="10" x1="950.077" y1="268.518" x2="950.077" y2="278.104"/>
		
			<line fill="none" stroke="#008080" stroke-width="1.25" stroke-miterlimit="10" x1="948.376" y1="267.891" x2="948.376" y2="277.479"/>
		
			<line fill="none" stroke="#008080" stroke-width="1.25" stroke-miterlimit="10" x1="946.497" y1="267.891" x2="946.497" y2="277.479"/>
		
			<line fill="none" stroke="#008080" stroke-width="1.25" stroke-miterlimit="10" x1="944.977" y1="267.009" x2="944.977" y2="276.596"/>
		
			<line fill="none" stroke="#008080" stroke-width="1.25" stroke-miterlimit="10" x1="965.529" y1="266.307" x2="965.529" y2="275.895"/>
		
			<line fill="none" stroke="#008080" stroke-width="1.25" stroke-miterlimit="10" x1="964.635" y1="267.895" x2="964.635" y2="277.48"/>
		
			<line fill="none" stroke="#008080" stroke-width="1.25" stroke-miterlimit="10" x1="963.203" y1="268.521" x2="963.203" y2="278.107"/>
		
			<line fill="none" stroke="#008080" stroke-width="1.25" stroke-miterlimit="10" x1="961.503" y1="267.895" x2="961.503" y2="277.48"/>
		
			<line fill="none" stroke="#008080" stroke-width="1.25" stroke-miterlimit="10" x1="959.624" y1="267.895" x2="959.624" y2="277.48"/>
		
			<line fill="none" stroke="#008080" stroke-width="1.25" stroke-miterlimit="10" x1="958.104" y1="267.012" x2="958.104" y2="276.6"/>
		
			<line fill="none" stroke="#008080" stroke-width="1.25" stroke-miterlimit="10" x1="962.37" y1="276.248" x2="962.37" y2="284.836"/>
		
			<line fill="none" stroke="#008080" stroke-width="1.25" stroke-miterlimit="10" x1="961.477" y1="276.836" x2="961.477" y2="286.422"/>
		
			<line fill="none" stroke="#008080" stroke-width="1.25" stroke-miterlimit="10" x1="960.044" y1="276.463" x2="960.044" y2="287.049"/>
		
			<line fill="none" stroke="#008080" stroke-width="1.25" stroke-miterlimit="10" x1="958.343" y1="275.836" x2="958.343" y2="286.422"/>
		
			<line fill="none" stroke="#008080" stroke-width="1.25" stroke-miterlimit="10" x1="956.464" y1="275.836" x2="956.464" y2="286.422"/>
		
			<line fill="none" stroke="#008080" stroke-width="1.25" stroke-miterlimit="10" x1="954.943" y1="275.953" x2="954.943" y2="285.541"/>
		
			<line fill="none" stroke="#008080" stroke-width="1.25" stroke-miterlimit="10" x1="968.587" y1="278.529" x2="968.563" y2="268.943"/>
		
			<line fill="none" stroke="#008080" stroke-width="1.25" stroke-miterlimit="10" x1="969.479" y1="276.941" x2="969.454" y2="267.354"/>
		
			<line fill="none" stroke="#008080" stroke-width="1.25" stroke-miterlimit="10" x1="970.907" y1="276.311" x2="970.884" y2="266.725"/>
		
			<line fill="none" stroke="#008080" stroke-width="1.25" stroke-miterlimit="10" x1="972.609" y1="276.934" x2="972.585" y2="267.348"/>
		
			<line fill="none" stroke="#008080" stroke-width="1.25" stroke-miterlimit="10" x1="974.488" y1="276.93" x2="974.464" y2="267.342"/>
		
			<line fill="none" stroke="#008080" stroke-width="1.25" stroke-miterlimit="10" x1="976.012" y1="277.807" x2="975.987" y2="268.221"/>
		<polyline fill="none" stroke="#008080" stroke-width="1.25" stroke-miterlimit="10" points="952.876,275.866 952.876,274.294 
			952.876,264.707 		"/>
	</g>
	<g>
		
			<line fill="none" stroke="#008080" stroke-width="1.25" stroke-miterlimit="10" x1="945.613" y1="276.822" x2="945.625" y2="265.236"/>
		
			<line fill="none" stroke="#008080" stroke-width="1.25" stroke-miterlimit="10" x1="944.631" y1="276.73" x2="944.643" y2="265.146"/>
		
			<line fill="none" stroke="#008080" stroke-width="1.25" stroke-miterlimit="10" x1="943.11" y1="276.643" x2="943.121" y2="265.057"/>
		
			<line fill="none" stroke="#008080" stroke-width="1.25" stroke-miterlimit="10" x1="941.589" y1="276.59" x2="941.599" y2="267.003"/>
		
			<line fill="none" stroke="#008080" stroke-width="1.25" stroke-miterlimit="10" x1="940.694" y1="276.46" x2="940.706" y2="264.873"/>
		
			<line fill="none" stroke="#008080" stroke-width="1.25" stroke-miterlimit="10" x1="936.576" y1="277.425" x2="936.586" y2="267.838"/>
		
			<line fill="none" stroke="#008080" stroke-width="1.25" stroke-miterlimit="10" x1="938.635" y1="276.324" x2="938.646" y2="266.736"/>
		
			<line fill="none" stroke="#008080" stroke-width="1.25" stroke-miterlimit="10" x1="936.568" y1="285.027" x2="936.578" y2="275.439"/>
		
			<line fill="none" stroke="#008080" stroke-width="1.25" stroke-miterlimit="10" x1="938.001" y1="284.4" x2="938.011" y2="274.814"/>
		
			<line fill="none" stroke="#008080" stroke-width="1.25" stroke-miterlimit="10" x1="939.701" y1="285.029" x2="939.711" y2="275.443"/>
		
			<line fill="none" stroke="#008080" stroke-width="1.25" stroke-miterlimit="10" x1="941.58" y1="285.032" x2="941.59" y2="275.445"/>
		
			<line fill="none" stroke="#008080" stroke-width="1.25" stroke-miterlimit="10" x1="943.1" y1="285.916" x2="943.11" y2="276.329"/>
		
			<line fill="none" stroke="#008080" stroke-width="1.25" stroke-miterlimit="10" x1="922.546" y1="286.598" x2="922.556" y2="277.011"/>
		
			<line fill="none" stroke="#008080" stroke-width="1.25" stroke-miterlimit="10" x1="923.441" y1="285.011" x2="923.45" y2="275.424"/>
		
			<line fill="none" stroke="#008080" stroke-width="1.25" stroke-miterlimit="10" x1="924.873" y1="284.385" x2="924.883" y2="274.8"/>
		
			<line fill="none" stroke="#008080" stroke-width="1.25" stroke-miterlimit="10" x1="926.573" y1="285.016" x2="926.583" y2="275.43"/>
		
			<line fill="none" stroke="#008080" stroke-width="1.25" stroke-miterlimit="10" x1="928.453" y1="285.018" x2="928.462" y2="275.43"/>
		
			<line fill="none" stroke="#008080" stroke-width="1.25" stroke-miterlimit="10" x1="929.973" y1="285.898" x2="929.982" y2="276.313"/>
		
			<line fill="none" stroke="#008080" stroke-width="1.25" stroke-miterlimit="10" x1="925.714" y1="276.659" x2="925.724" y2="268.07"/>
		
			<line fill="none" stroke="#008080" stroke-width="1.25" stroke-miterlimit="10" x1="926.61" y1="276.072" x2="926.621" y2="266.484"/>
		
			<line fill="none" stroke="#008080" stroke-width="1.25" stroke-miterlimit="10" x1="928.041" y1="276.445" x2="928.052" y2="265.859"/>
		
			<line fill="none" stroke="#008080" stroke-width="1.25" stroke-miterlimit="10" x1="929.742" y1="277.075" x2="929.753" y2="266.49"/>
		
			<line fill="none" stroke="#008080" stroke-width="1.25" stroke-miterlimit="10" x1="931.621" y1="277.077" x2="931.632" y2="266.491"/>
		
			<line fill="none" stroke="#008080" stroke-width="1.25" stroke-miterlimit="10" x1="933.143" y1="276.962" x2="933.151" y2="267.373"/>
		
			<line fill="none" stroke="#008080" stroke-width="1.25" stroke-miterlimit="10" x1="919.5" y1="274.37" x2="919.514" y2="283.956"/>
		
			<line fill="none" stroke="#008080" stroke-width="1.25" stroke-miterlimit="10" x1="918.607" y1="275.959" x2="918.621" y2="285.546"/>
		
			<line fill="none" stroke="#008080" stroke-width="1.25" stroke-miterlimit="10" x1="917.177" y1="276.588" x2="917.191" y2="286.175"/>
		
			<line fill="none" stroke="#008080" stroke-width="1.25" stroke-miterlimit="10" x1="915.476" y1="275.962" x2="915.491" y2="285.551"/>
		
			<line fill="none" stroke="#008080" stroke-width="1.25" stroke-miterlimit="10" x1="913.597" y1="275.965" x2="913.612" y2="285.553"/>
		
			<line fill="none" stroke="#008080" stroke-width="1.25" stroke-miterlimit="10" x1="912.074" y1="275.088" x2="912.088" y2="284.673"/>
		<polyline fill="none" stroke="#008080" stroke-width="1.25" stroke-miterlimit="10" points="935.209,277.051 935.208,278.623 
			935.198,288.21 		"/>
	</g>
</g>
<g id="Grid">
	<polyline fill="none" stroke="#D1D3D4" stroke-width="2" stroke-miterlimit="10" points="975.809,312.203 42.238,312.01 
		42.045,15.887 	"/>
	<line fill="none" stroke="#D1D3D4" stroke-miterlimit="10" x1="42.055" y1="30.061" x2="727.762" y2="30.254"/>
	<line fill="none" stroke="#D1D3D4" stroke-miterlimit="10" x1="975.809" y1="91.162" x2="42.094" y2="91.354"/>
	<line fill="none" stroke="#D1D3D4" stroke-miterlimit="10" x1="975.809" y1="154.201" x2="42.095" y2="154.392"/>
	<line fill="none" stroke="#D1D3D4" stroke-miterlimit="10" x1="976.643" y1="214.872" x2="42.928" y2="215.063"/>
	<line fill="none" stroke="#D1D3D4" stroke-miterlimit="10" x1="976.643" y1="276.704" x2="42.929" y2="276.896"/>
	<line fill="none" stroke="#D1D3D4" stroke-miterlimit="10" x1="95.235" y1="15.887" x2="95.235" y2="312.021"/>
	<line fill="none" stroke="#D1D3D4" stroke-miterlimit="10" x1="188.822" y1="15.887" x2="188.822" y2="312.021"/>
	<line fill="none" stroke="#D1D3D4" stroke-miterlimit="10" x1="280.456" y1="15.887" x2="280.456" y2="312.021"/>
	<line fill="none" stroke="#D1D3D4" stroke-miterlimit="10" x1="372.166" y1="15.529" x2="372.166" y2="311.662"/>
	<line fill="none" stroke="#D1D3D4" stroke-miterlimit="10" x1="465.348" y1="15.529" x2="465.348" y2="311.662"/>
	<line fill="none" stroke="#D1D3D4" stroke-miterlimit="10" x1="557.737" y1="15.17" x2="557.737" y2="311.304"/>
	<line fill="none" stroke="#D1D3D4" stroke-miterlimit="10" x1="650.184" y1="15.529" x2="650.184" y2="311.662"/>
	<line fill="none" stroke="#D1D3D4" stroke-miterlimit="10" x1="741.799" y1="15.529" x2="741.799" y2="311.662"/>
	<line fill="none" stroke="#D1D3D4" stroke-miterlimit="10" x1="835.741" y1="15.529" x2="835.741" y2="311.662"/>
	<line fill="none" stroke="#D1D3D4" stroke-miterlimit="10" x1="926.537" y1="16.246" x2="926.537" y2="312.379"/>
</g>
</svg>
